<?xml version="1.0" encoding="utf-8"?>
<svg viewBox="0 0 300 300" xmlns="http://www.w3.org/2000/svg">
    <g transform="matrix(0.10000000149011612, 0, 0, -0.10000000149011612, 0, 300.00000000000006)" fill="#000000" stroke="none">
        <path d="M 2930.352 2749.78 C 2925.702 2747.773 2308.418 2109.704 2291.364 2095.665 C 2239.121 2095.485 2427.326 2027.76 2436.627 2019.739 C 2447.479 2011.716 1958.671 850.86 1951.383 865.013 C 1914.03 937.553 1370.025 2453.28 1364.874 2460.434 C 1173.207 2726.635 1120.792 2701.436 927.421 2457.64 C 924.671 2454.172 231.036 953.16 167.473 810.777 C -10.81 409.706 52.158 256.599 169.46 235.745 C 292.679 213.839 298.237 317.452 571.515 886.725 L 1307.383 889.675 C 1331.731 892.11 1284.555 1137.002 1155.706 1181.052 C 1064.171 1235.418 750.443 1210.622 706.359 1219.215 C 701.983 1220.068 1121.635 2146.56 1121.635 2146.56 L 1517.579 1053.974 C 1687.297 605.131 1787.366 321.612 1802.871 299.549 C 1874.182 197.277 2040.375 219.336 2083.122 313.908 C 2137.95 435.208 2742.923 1901.25 2753.31 1895.603 C 2770.487 1886.264 2915.546 1824.41 2915.546 1824.41 C 2915.546 1824.41 2935.003 2749.78 2930.352 2749.78 Z" style=""/>
    </g>
</svg>