<svg xmlns="http://www.w3.org/2000/svg" viewBox="0 0 24 24">
<path fill="#12426E" d="M23.443 2.002C23.406 2.018 18.467 7.122 18.331 7.235 17.913 7.236 19.419 7.778 19.493 7.842 19.58 7.906 15.669 17.193 15.611 17.08 15.312 16.5 10.96 4.374 10.919 4.317 9.386 2.187 8.966 2.389 7.419 4.339 7.397 4.367 1.848 16.375 1.34 17.514-0.087 20.722 0.417 21.947 1.356 22.114 2.341 22.289 2.386 21.46 4.572 16.906L10.459 16.883C10.654 16.863 10.276 14.904 9.246 14.552 8.513 14.117 6.004 14.315 5.651 14.246 5.616 14.24 8.973 6.828 8.973 6.828l3.168 8.74c1.357 3.591 2.158 5.859 2.282 6.036 0.571 0.818 1.9 0.641 2.242-0.115 0.439-0.971 5.278-12.699 5.361-12.654 0.138 0.075 1.298 0.57 1.298 0.57s0.156-7.403 0.119-7.403Z"/>
</svg>