<?xml version="1.0" encoding="iso-8859-1"?>
<!-- Generator: Adobe Illustrator 19.0.0, SVG Export Plug-In . SVG Version: 6.00 Build 0)  -->
<svg version="1.1" id="Layer_1" xmlns="http://www.w3.org/2000/svg" x="0px" y="0px"
	 viewBox="0 0 223.254 223.254" style="enable-background:new 0 0 223.254 223.254;" xml:space="preserve">
<g>
	<g>
		<g>
			<path d="M180.25,111.627v-4h-8v4c0,30.879-25.121,56-56,56c-30.879,0-56-25.121-56-56c0-30.879,25.121-56,56-56h4v-8h-4
				c-35.289,0-64,28.711-64,64s28.711,64,64,64S180.25,146.916,180.25,111.627z"/>
			<path d="M180.25,94.877c0-24.951-20.301-45.25-45.25-45.25c-1.012,0-2.012,0.033-3.008,0.098l-3.742,0.242v48.91h52V94.877z
				 M136.25,90.877V57.649c18.621,0.617,33.828,14.971,35.785,33.228H136.25z"/>
			<polygon
					points="175.457,19.627 162.024,47.893 169.25,51.326 180.512,27.627 223.254,27.627 223.254,19.627 			"/>
			<polygon
					points="34.199,171.717 0,171.717 0,179.717 39.402,179.717 52.535,150.067 45.223,146.828 			"/>
			<polygon
					points="143.621,176.748 136.543,180.475 148.727,203.627 206.852,203.627 206.852,195.627 153.555,195.627 			"/>
		</g>
	</g>
</g>
	<g>
</g>
	<g>
</g>
	<g>
</g>
	<g>
</g>
	<g>
</g>
	<g>
</g>
	<g>
</g>
	<g>
</g>
	<g>
</g>
	<g>
</g>
	<g>
</g>
	<g>
</g>
	<g>
</g>
	<g>
</g>
	<g>
</g>
</svg>
