<?xml version="1.0" encoding="utf-8"?>
<!-- Generator: Adobe Illustrator 24.1.1, SVG Export Plug-In . SVG Version: 6.00 Build 0)  -->
<svg version="1.1" id="Layer_1" xmlns="http://www.w3.org/2000/svg" xmlns:xlink="http://www.w3.org/1999/xlink" x="0px" y="0px"
	 viewBox="0 0 512 512" style="enable-background:new 0 0 512 512;" xml:space="preserve">
<g>
	<path d="M292.57,242.86l41-40.96c14.54-14.04,37.68-13.64,51.71,0.89c13.71,14.14,13.71,36.61,0.04,50.79L281.86,357.04
		c-14.18,14.29-37.29,14.36-51.54,0.14l-0.14-0.14L126.71,253.57c-14.29-14.29-14.29-37.46,0.04-51.75
		c14.29-14.25,37.46-14.25,51.75,0.04l40.93,41V36.57C219.43,16.36,235.82,0,256,0c20.21,0,36.57,16.36,36.57,36.57V242.86z
		 M36.57,438.86h438.86c20.21,0,36.57,16.36,36.57,36.57c0,20.18-16.36,36.57-36.57,36.57H36.57C16.39,512,0,495.61,0,475.43
		C0,455.21,16.39,438.86,36.57,438.86z"/>
</g>
</svg>
