<?xml version="1.0" encoding="UTF-8" standalone="no"?>
<!DOCTYPE svg PUBLIC "-//W3C//DTD SVG 1.1//EN" "http://www.w3.org/Graphics/SVG/1.1/DTD/svg11.dtd">
<svg xmlns:xlink="http://www.w3.org/1999/xlink" version="1.1" xmlns="http://www.w3.org/2000/svg"
     preserveAspectRatio="xMidYMid meet"
     viewBox="212.45925460228904 174.07999999999998 215.08149079542198 184.37916444444448" width="25" height="21">
    <defs>
        <path d="M407.04 286.72C402.94 286.72 370.18 286.72 366.08 286.72C363.01 286.72 360.96 284.67 360.96 281.6C360.96 278.53 363.01 276.48 366.08 276.48C370.18 276.48 402.94 276.48 407.04 276.48C410.11 276.48 412.16 278.53 412.16 281.6C412.16 284.67 410.11 286.72 407.04 286.72ZM340.48 268.29C340.48 310.07 340.48 333.28 340.48 337.92C340.48 339.97 339.46 341.5 337.41 342.53C334.34 344.06 309.76 356.35 306.69 357.89C305.4 359.17 303.63 357.89 302.08 357.89C300.54 356.86 299.52 354.82 299.52 353.28C299.52 347.61 299.52 319.28 299.52 268.29C248.22 216.99 219.72 188.48 214.02 182.78C212.48 181.25 211.97 179.2 212.99 177.15C214.02 175.1 215.55 174.08 217.6 174.08C238.08 174.08 401.92 174.08 422.4 174.08C424.45 174.08 426.5 175.1 427.01 177.15C428.03 179.2 427.52 181.25 425.98 182.78C414.58 194.18 386.08 222.69 340.48 268.29ZM229.89 184.32C276.89 231.32 303 257.43 308.22 262.66C309.25 263.68 309.76 264.7 309.76 266.24C309.76 271.5 309.76 297.78 309.76 345.09L330.24 334.85C330.24 293.68 330.24 270.81 330.24 266.24C330.24 264.7 330.75 263.68 331.78 262.66C337 257.43 363.11 231.32 410.11 184.32L229.89 184.32Z"
              id="e1rD4p083V"></path>
    </defs>
    <g>
        <use xlink:href="#e1rD4p083V" opacity="1" fill="#000000" fill-opacity="1"></use>
        <g>
            <use xlink:href="#e1rD4p083V" opacity="1" fill-opacity="0" stroke="#000000" stroke-width="1"
                 stroke-opacity="0"></use>
        </g>
    </g>
</svg>