<?xml version="1.0" encoding="UTF-8" standalone="no"?>
<!DOCTYPE svg PUBLIC "-//W3C//DTD SVG 1.1//EN" "http://www.w3.org/Graphics/SVG/1.1/DTD/svg11.dtd">
<svg xmlns:xlink="http://www.w3.org/1999/xlink" version="1.1" xmlns="http://www.w3.org/2000/svg"
     preserveAspectRatio="xMidYMid meet"
     viewBox="0.18018532421294542 -2.842170943040401e-14 214.63814162188157 183.99972501110756" width="25" height="21">
    <defs>
        <path d="M184.14 112.41C184.14 124.67 184.14 131.48 184.14 132.85C184.14 135.91 182.1 137.96 179.03 137.96C175.97 137.96 173.92 135.91 173.92 132.85C173.92 131.48 173.92 124.67 173.92 112.41C161.66 112.41 154.85 112.41 153.48 112.41C150.42 112.41 148.38 110.36 148.38 107.3C148.38 104.24 150.42 102.19 153.48 102.19C154.85 102.19 161.66 102.19 173.92 102.19C173.92 89.92 173.92 83.12 173.92 81.75C173.92 78.69 175.97 76.64 179.03 76.64C182.1 76.64 184.14 78.69 184.14 81.75C184.14 83.12 184.14 89.92 184.14 102.19C196.41 102.19 203.22 102.19 204.58 102.19C207.64 102.19 209.69 104.24 209.69 107.3C209.69 110.36 207.64 112.41 204.58 112.41C203.22 112.41 196.41 112.41 184.14 112.41ZM127.94 163.5C127.94 165.55 126.92 167.08 124.87 168.1C121.81 169.63 97.28 181.9 94.22 183.43C92.93 184.71 91.16 183.43 89.62 183.43C88.08 182.4 87.06 180.37 87.06 178.83C87.06 173.17 87.06 144.9 87.06 94.02C35.87 42.82 7.43 14.37 1.74 8.68C0.2 7.16 -0.31 5.11 0.71 3.06C1.74 1.02 3.26 0 5.31 0C25.75 0 189.25 0 209.69 0C211.73 0 213.78 1.02 214.29 3.06C215.31 5.11 214.8 7.16 213.26 8.68C201.88 20.06 173.44 48.51 127.94 94.02C127.94 135.71 127.94 158.87 127.94 163.5ZM95.74 88.4C96.77 89.42 97.28 90.43 97.28 91.97C97.28 97.22 97.28 123.45 97.28 170.66C99.32 169.64 115.67 161.46 117.72 160.44C117.72 119.35 117.72 96.53 117.72 91.97C117.72 90.43 118.23 89.42 119.26 88.4C124.46 83.18 150.52 57.12 197.42 10.22C185.43 10.22 125.48 10.22 17.57 10.22C66.21 58.86 92.27 84.92 95.74 88.4Z"
              id="f1axPqbQOY"></path>
        <path d="M184.14 112.41C184.14 124.67 184.14 131.48 184.14 132.85C184.14 135.91 182.1 137.96 179.03 137.96C175.97 137.96 173.92 135.91 173.92 132.85C173.92 131.48 173.92 124.67 173.92 112.41C161.66 112.41 154.85 112.41 153.48 112.41C150.42 112.41 148.38 110.36 148.38 107.3C148.38 104.24 150.42 102.19 153.48 102.19C154.85 102.19 161.66 102.19 173.92 102.19C173.92 89.92 173.92 83.12 173.92 81.75C173.92 78.69 175.97 76.64 179.03 76.64C182.1 76.64 184.14 78.69 184.14 81.75C184.14 83.12 184.14 89.92 184.14 102.19C196.41 102.19 203.22 102.19 204.58 102.19C207.64 102.19 209.69 104.24 209.69 107.3C209.69 110.36 207.64 112.41 204.58 112.41C203.22 112.41 196.41 112.41 184.14 112.41ZM127.94 163.5C127.94 165.55 126.92 167.08 124.87 168.1C121.81 169.63 97.28 181.9 94.22 183.43C92.93 184.71 91.16 183.43 89.62 183.43C88.08 182.4 87.06 180.37 87.06 178.83C87.06 173.17 87.06 144.9 87.06 94.02C35.87 42.82 7.43 14.37 1.74 8.68C0.2 7.16 -0.31 5.11 0.71 3.06C1.74 1.02 3.26 0 5.31 0C25.75 0 189.25 0 209.69 0C211.73 0 213.78 1.02 214.29 3.06C215.31 5.11 214.8 7.16 213.26 8.68C201.88 20.06 173.44 48.51 127.94 94.02C127.94 135.71 127.94 158.87 127.94 163.5ZM95.74 88.4C96.77 89.42 97.28 90.43 97.28 91.97C97.28 97.22 97.28 123.45 97.28 170.66C99.32 169.64 115.67 161.46 117.72 160.44C117.72 119.35 117.72 96.53 117.72 91.97C117.72 90.43 118.23 89.42 119.26 88.4C124.46 83.18 150.52 57.12 197.42 10.22C185.43 10.22 125.48 10.22 17.57 10.22C66.21 58.86 92.27 84.92 95.74 88.4Z"
              id="amxhbxr3A"></path>
    </defs>
    <g>
        <g>
            <use xlink:href="#f1axPqbQOY" opacity="1" fill="#000000" fill-opacity="1"></use>
            <g>
                <use xlink:href="#f1axPqbQOY" opacity="1" fill-opacity="0" stroke="#000000" stroke-width="1"
                     stroke-opacity="0"></use>
            </g>
        </g>
        <g>
            <use xlink:href="#amxhbxr3A" opacity="1" fill="#000000" fill-opacity="0"></use>
            <g>
                <use xlink:href="#amxhbxr3A" opacity="1" fill-opacity="0" stroke="#000000" stroke-width="1"
                     stroke-opacity="0"></use>
            </g>
        </g>
    </g>
</svg>