<?xml version="1.0" encoding="utf-8"?>
<svg viewBox="60.589 208.947 272.367 110.419" xmlns="http://www.w3.org/2000/svg">
  <defs>
    <style>
      .cls-1 {
      fill: #6bbff6;
      }

      .cls-2 {
      fill: #007966;
      }

      .cls-3 {
      fill: #ff6f00;
      }

      .cls-4 {
      fill: #1a366c;
      }

      .cls-5 {
      fill: #00b2a6;
      }

      .cls-6 {
      fill: #0182c6;
      }

      .cls-7 {
      display: none;
      fill: #f2f1f0;
      }

      .cls-8 {
      fill: #009688;
      }

      .cls-9 {
      fill: #255a9f;
      }

      .cls-10 {
      fill: #066;
      }
    </style>
  </defs>
  <g transform="matrix(0.7254859805107117, 0, 0, 0.7254859805107117, 17.646657943725586, 57.78508758544922)">
    <g id="Layer_1">
      <g>
        <path class="cls-3" d="M166.2,264.8h-1v14.8h14.8v-1c0-7.6-6.2-13.8-13.8-13.8h0Z"/>
        <path class="cls-3" d="M163,269h-1c-7.6,0-13.8,6.2-13.8,13.8s6.2,13.8,13.8,13.8,13.8-6.2,13.8-13.8v-1h-12.8v-12.8Z"/>
      </g>
      <path class="cls-2" d="M243,323.8h-9.9l-2.2-7.8h-14.8l-2.2,7.8h-9.9l15-47.4h9.1l15,47.4h-.1ZM227.5,304.4l-4.1-14.4-4.1,14.4h8.2Z" style="fill: rgb(18, 66, 110);"/>
      <path class="cls-8" d="M278,323.8h-27.4v-47.4h9.8v35.6h17.5v11.7h.1Z" style="fill: rgb(18, 66, 110);"/>
      <path class="cls-5" d="M297.4,323.8h-9.8v-22.5l-12.8-24.9h10.9l6.8,14.1,6.8-14.1h10.9l-12.8,24.9v22.5Z" style="fill: rgb(18, 66, 110);"/>
      <path class="cls-1" d="M332,324.2h-9.8v-35.6h-9.2v-11.7h28.2v11.7h-9.2v35.6Z" style="fill: rgb(18, 66, 110);"/>
      <path class="cls-6" d="M357,324h-9.8v-47.4h9.8v47.4Z" style="fill: rgb(18, 66, 110);"/>
      <path class="cls-9" d="M378.5,324.9c-5.8,0-10.1-2.4-12.8-7.2-2.4-4.3-3.6-10-3.6-17.4s1.2-13.2,3.6-17.5c2.7-4.8,7-7.2,12.8-7.2s6.2.8,8.4,2.3c2.2,1.6,4,3.8,5.2,6.5s2.1,5.8,2.5,9.3h-10.3c-1-3.6-2.9-5.5-5.7-5.5s-4.1,1.4-5.2,4.1c-.9,2.2-1.3,4.8-1.3,7.8s.4,5.6,1.3,7.8c1.1,2.7,2.9,4.1,5.2,4.1s4.7-1.8,5.7-5.5h10.3c-.4,3.6-1.2,6.7-2.5,9.4-1.2,2.7-3,4.9-5.2,6.5s-5,2.3-8.4,2.3h0v.2h0Z" style="fill: rgb(18, 66, 110);"/>
      <path class="cls-4" d="M414.4,324.3c-3.2,0-5.7-.7-7.6-2.1s-3.4-3.3-4.5-5.7c-1-2.4-1.7-5.2-2-8.4h10.4c.8,2.3,2,3.4,3.7,3.4s2.9-1.1,3.7-3.4v-.5c0-.6-.4-1-1.2-1.4-.8-.3-1.9-.5-3.5-.7-2-.1-4-.5-6.2-1.2-4.8-1.5-7.2-5.4-7.2-11.7s0-1,0-1.6c.3-3.2,1-5.9,2-8.3s2.5-4.3,4.5-5.7c1.9-1.4,4.5-2.1,7.6-2.1s5.7.7,7.7,2.1c1.9,1.4,3.4,3.2,4.4,5.7,1,2.4,1.7,5.2,2,8.3h-10.4c-.8-2.3-2-3.4-3.7-3.4s-2.9,1.2-3.7,3.4v.5c0,.5.4.9,1.1,1.2.8.3,1.9.5,3.3.6,1.5.2,3,.5,4.6.9s3.2,1.1,4.6,2.1,2.5,2.4,3.3,4.3c.6,1.4.9,3.3.9,5.6s0,1.3,0,2c-.3,3.2-1,5.9-2,8.4-1,2.4-2.5,4.3-4.4,5.7-1.9,1.4-4.5,2.1-7.7,2.1h.3Z" style="fill: rgb(18, 66, 110);"/>
      <path class="cls-7" d="M162.1,413.8h-38c-.6,0-1.2-.4-1.2-1s.5-1,1.2-1h38c.6,0,1.2.5,1.2,1s-.5,1-1.2,1ZM162.1,404.6h-50.4c-.6,0-1.2-.4-1.2-1s.5-1,1.2-1h50.4c.6,0,1.2.4,1.2,1s-.5,1-1.2,1ZM154.8,394.4c0-.6.5-1,1.2-1h6.2c.6,0,1.2.4,1.2,1s-.5,1-1.2,1h-6.2c-.7,0-1.2-.4-1.2-1ZM163.3,385.2c0,.6-.5,1-1.2,1h-38c-.6,0-1.2-.4-1.2-1s.5-1,1.2-1h38c.6,0,1.2.4,1.2,1ZM139.6,336.6h1.2c9,0,16.3,6.2,16.3,13.8v1h-17.4v-14.8h-.1ZM133.2,343.1h1.2v12.8h15.1v1c0,7.6-7.3,13.8-16.3,13.8s-16.3-6.2-16.3-13.8,7.3-13.8,16.3-13.8ZM111.8,384.3h6.2c.6,0,1.2.5,1.2,1s-.5,1-1.2,1h-6.2c-.6,0-1.2-.4-1.2-1s.5-1,1.2-1ZM111.8,393.5h38.1c.6,0,1.2.4,1.2,1s-.5,1-1.2,1h-38.1c-.6,0-1.2-.5-1.2-1s.5-1,1.2-1ZM111.8,411.8h6.2c.6,0,1.2.5,1.2,1s-.5,1-1.2,1h-6.2c-.6,0-1.2-.4-1.2-1s.5-1,1.2-1Z"/>
      <path class="cls-10" d="M221.6,210.5c-.3.1-34.1,36.8-35.1,37.6-2.9,0,7.5,3.9,8,4.4.6.5-26.2,67.2-26.6,66.4-2-4.2-31.9-91.3-32.2-91.7-10.5-15.3-13.4-13.9-24,.2-.2.2-38.2,86.5-41.7,94.7-9.8,23.1-6.3,31.9,0,33.1,6.8,1.3,7.1-4.7,22.1-37.4l40.4-.2c1.3-.1-1.3-14.2-8.3-16.8-5-3.1-22.2-1.7-24.7-2.2-.2,0,22.8-53.3,22.8-53.3l21.7,62.8c9.3,25.8,14.8,42.1,15.7,43.4,3.9,5.9,13,4.6,15.4-.8,3-7,36.2-91.3,36.8-90.9.9.5,8.9,4.1,8.9,4.1,0,0,1.1-53.2.8-53.2v-.2Z" style="fill: rgb(18, 66, 110);"/>
    </g>
  </g>
</svg>