<?xml version="1.0" encoding="utf-8"?>
<!-- Generator: Adobe Illustrator 24.1.1, SVG Export Plug-In . SVG Version: 6.00 Build 0)  -->
<svg version="1.1" id="Layer_1" xmlns="http://www.w3.org/2000/svg" xmlns:xlink="http://www.w3.org/1999/xlink" x="0px" y="0px"
	 viewBox="0 0 512 512" style="enable-background:new 0 0 512 512;" xml:space="preserve">
<g>
	<path d="M103.82,152.12l40.3-12.31c13.33-4.1,27.46,3.43,31.56,16.78c4.07,13.35-3.43,27.46-16.78,31.56l-96.66,29.56
		c-13.35,4.07-27.49-3.43-31.56-16.78v-0.02L1.12,104.24c-4.1-13.35,3.43-27.49,16.78-31.56s27.46,3.43,31.56,16.78l11.1,36.42
		C121.41,32.17,242.13-8.16,349.27,35.77c64.87,26.6,114.67,80.54,135.97,147.34c4.47,13.2-2.62,27.56-15.82,32.05
		c-13.23,4.47-27.56-2.62-32.05-15.82l-0.27-0.89C405.83,100.32,300.93,46.11,202.8,77.35c-40.54,12.91-75.46,39.31-98.95,74.77
		H103.82z M415.31,359.2l-44.84,11.2c-13.47,3.68-27.37-4.24-31.07-17.69c-3.68-13.45,4.24-27.37,17.69-31.04l1.14-0.3l92.04-22.97
		c4.81-2.27,10.19-2.99,15.42-2.02c10.29,1.36,18.73,8.88,21.22,18.95l24.45,98.06c3.08,13.6-5.48,27.12-19.1,30.18
		c-13.18,2.99-26.33-4.94-29.91-17.96l-8.34-33.41C379.3,499.7,231.59,526.31,124.1,451.59c-37.56-26.08-66.75-62.46-84.07-104.78
		l-6.59-16.01c-5.28-12.91,0.91-27.66,13.82-32.97c12.91-5.28,27.69,0.91,32.97,13.82l6.56,15.99
		c39.06,95.32,147.98,140.93,243.31,101.86c34.84-14.29,64.55-38.79,85.21-70.28V359.2z"/>
</g>
</svg>
