<svg width="412" height="412" xmlns="http://www.w3.org/2000/svg">
    <g>
        <rect fill="none" id="canvas_background" height="162" width="162" y="-1" x="-1"/>
    </g>
    <g stroke="null" id="svg_22">
        <path fill="#eca700" id="svg_4"
              d="m352.16667,109.47339l-73.33333,0c-5.04167,0 -9.16667,3.81873 -9.16667,8.48608c0,4.66734 4.125,8.48608 9.16667,8.48608l73.33333,0c15.125,0 27.5,11.4562 27.5,25.45823l0,203.66584c0,14.00203 -12.375,25.45823 -27.5,25.45823l-293.33331,0c-15.125,0 -27.5,-11.4562 -27.5,-25.45823l0,-203.66584c0,-14.00203 12.375,-25.45823 27.5,-25.45823l82.49999,0c5.04167,0 9.16667,-3.81873 9.16667,-8.48608c0,-4.66734 -4.125,-8.48608 -9.16667,-8.48608l-82.49999,0c-25.20833,0 -45.83333,19.09367 -45.83333,42.43038l0,203.66584c0,23.33671 20.625,42.43038 45.83333,42.43038l293.33331,0c25.20833,0 45.83333,-19.09367 45.83333,-42.43038l0,-203.66584c0,-23.33671 -20.625,-42.43038 -45.83333,-42.43038z"/>
        <path fill="#eca700" id="svg_6"
              d="m117.95835,185.42377c-3.66667,3.39443 -3.66667,8.48608 0,11.88051l81.12499,75.10178c1.83333,1.69722 4.125,2.54582 6.41667,2.54582s4.58333,-0.84861 6.41667,-2.54582l81.12499,-75.10178c3.66667,-3.39443 3.66667,-8.48608 0,-11.88051s-9.16667,-3.39443 -12.83333,0l-65.54166,60.67545l0,-225.72964c0,-4.66734 -4.125,-8.48608 -9.16667,-8.48608c-5.04167,0 -9.16667,3.81873 -9.16667,8.48608l0,225.72964l-65.54166,-60.67545c-3.66667,-3.39443 -9.16667,-3.39443 -12.83333,0z"/>
    </g>
</svg>