<?xml version="1.0" encoding="utf-8"?><!-- Uploaded to: SVG Repo, www.svgrepo.com, Generator: SVG Repo Mixer Tools -->
<svg width="800px" height="800px" viewBox="0 0 24 24" fill="none" xmlns="http://www.w3.org/2000/svg">
<path d="M11.5 18.5H5.5C4.39543 18.5 3.5 17.6046 3.5 16.5V8.5M3.5 8.5V6.5C3.5 5.39543 4.39543 4.5 5.5 4.5H18.5C19.6046 4.5 20.5 5.39543 20.5 6.5V8.35C20.5 8.43284 20.4328 8.5 20.35 8.5H3.5Z" stroke="#222222" stroke-linecap="round" stroke-linejoin="round"/>
<path d="M3.5 13.5H9.5" stroke="#222222" stroke-linecap="round" stroke-linejoin="round"/>
<path d="M13.649 16.1667C13.4121 15.7409 13.2937 15.528 13.2473 15.3025C13.2062 15.1029 13.2062 14.8971 13.2473 14.6975C13.2937 14.472 13.4121 14.2591 13.649 13.8333L13.9724 13.252L14.3141 12.6813C14.5644 12.2633 14.6896 12.0543 14.8617 11.9013C15.014 11.7659 15.1922 11.663 15.3856 11.5988C15.6041 11.5263 15.8477 11.5224 16.3349 11.5146L17 11.504L17.6651 11.5146C18.1523 11.5224 18.3959 11.5263 18.6144 11.5988C18.8078 11.663 18.986 11.7659 19.1383 11.9013C19.3104 12.0543 19.4356 12.2633 19.6859 12.6813L20.0276 13.252L20.351 13.8333C20.5879 14.2591 20.7063 14.472 20.7527 14.6975C20.7938 14.8971 20.7938 15.1029 20.7527 15.3025C20.7063 15.528 20.5879 15.7409 20.351 16.1667L20.0276 16.748L19.6859 17.3187C19.4356 17.7367 19.3104 17.9457 19.1383 18.0987C18.986 18.2341 18.8078 18.337 18.6144 18.4012C18.3959 18.4737 18.1523 18.4776 17.6651 18.4854L17 18.496L16.3349 18.4854C15.8477 18.4776 15.6041 18.4737 15.3856 18.4012C15.1922 18.337 15.014 18.2341 14.8617 18.0987C14.6896 17.9457 14.5644 17.7367 14.3141 17.3187L13.9724 16.748L13.649 16.1667Z" stroke="#222222" stroke-linejoin="round"/>
<circle cx="17" cy="15" r="1" fill="#222222"/>
</svg>