<svg class="svg-icon" style="width: 1em; height: 1em;vertical-align: middle;fill: currentColor;overflow: hidden;" viewBox="0 0 1024 1024" version="1.1" xmlns="http://www.w3.org/2000/svg"><path d="M736.548571 603.428571l64 80.018286a18.285714 18.285714 0 1 1-28.525714 22.820572L713.142857 632.685714l-58.88 73.581715a18.285714 18.285714 0 1 1-28.525714-22.820572l64-80.018286-18.834286-23.515428a18.285714 18.285714 0 0 1 28.562286-22.857143l13.677714 17.115429 35.108572-43.885715H621.714286a18.285714 18.285714 0 1 1 0-36.571428h73.142857V475.428571a18.285714 18.285714 0 1 1 36.571428 0v18.285715h73.142858a18.285714 18.285714 0 1 1 0 36.571428h-9.508572l-58.514286 73.142857zM271.616 470.857143l-35.291429 84.736a18.285714 18.285714 0 0 1-33.792-14.043429l91.428572-219.428571a18.285714 18.285714 0 0 1 33.755428 0l91.428572 218.843428a18.285714 18.285714 0 0 1-33.718857 14.116572l-35.181715-84.224h-78.628571z m15.250286-36.571429h48.091428l-24.064-57.636571-24.027428 57.636571zM128 603.428571H329.142857a18.285714 18.285714 0 1 1 0 36.571429H109.714286a18.285714 18.285714 0 0 1-18.285715-18.285714V256a18.285714 18.285714 0 0 1 18.285715-18.285714h457.142857a18.285714 18.285714 0 1 1 0 36.571428h-438.857143v329.142857z m768-182.857142H694.857143a18.285714 18.285714 0 1 1 0-36.571429h219.428571a18.285714 18.285714 0 0 1 18.285715 18.285714v365.714286a18.285714 18.285714 0 0 1-18.285715 18.285714H457.142857a18.285714 18.285714 0 1 1 0-36.571428h438.857143v-329.142857z m-179.785143-247.844572a18.285714 18.285714 0 1 1 30.427429 20.260572l-438.857143 658.285714a18.285714 18.285714 0 0 1-30.427429-20.260572l438.857143-658.285714z"  /></svg>